<svg width="18" height="18" viewBox="0 0 18 18" fill="none" xmlns="http://www.w3.org/2000/svg">
<path d="M16.5 10.5V4.5C16.5 3.90326 16.2629 3.33097 15.841 2.90901C15.419 2.48705 14.8467 2.25 14.25 2.25H6.75C6.15326 2.25 5.58097 2.48705 5.15901 2.90901C4.73705 3.33097 4.5 3.90326 4.5 4.5V9.75" stroke="black" stroke-width="0.975" stroke-linecap="round" stroke-linejoin="round"/>
<path d="M9.00002 15.75H4.50002C3.70437 15.75 2.9413 15.4339 2.37869 14.8713C1.81609 14.3087 1.50002 13.5456 1.50002 12.75C1.50002 11.9544 1.81609 11.1913 2.37869 10.6287C2.9413 10.0661 3.70437 9.75 4.50002 9.75H13.5C12.9067 9.75 12.3267 9.92595 11.8333 10.2556C11.34 10.5852 10.9554 11.0538 10.7284 11.6019C10.5013 12.1501 10.4419 12.7533 10.5577 13.3353C10.6734 13.9172 10.9591 14.4518 11.3787 14.8713C11.7983 15.2909 12.3328 15.5766 12.9147 15.6924C13.4967 15.8081 14.0999 15.7487 14.6481 15.5216C15.1962 15.2946 15.6648 14.9101 15.9944 14.4167C16.3241 13.9234 16.5 13.3433 16.5 12.75V10.5" stroke="black" stroke-width="0.975" stroke-linecap="round" stroke-linejoin="round"/>
</svg>
