<svg width="18" height="18" viewBox="0 0 18 18" fill="none" xmlns="http://www.w3.org/2000/svg">
<path d="M10.5 15.3V10.95C10.5 10.8307 10.5474 10.7162 10.6318 10.6318C10.7162 10.5474 10.8307 10.5 10.95 10.5H15.3C15.4193 10.5 15.5338 10.5474 15.6182 10.6318C15.7026 10.7162 15.75 10.8307 15.75 10.95V15.3C15.75 15.4193 15.7026 15.5338 15.6182 15.6182C15.5338 15.7026 15.4193 15.75 15.3 15.75H10.95C10.8307 15.75 10.7162 15.7026 10.6318 15.6182C10.5474 15.5338 10.5 15.4193 10.5 15.3ZM2.25 15.3V10.95C2.25 10.8307 2.29741 10.7162 2.3818 10.6318C2.46619 10.5474 2.58065 10.5 2.7 10.5H7.05C7.16935 10.5 7.28381 10.5474 7.3682 10.6318C7.45259 10.7162 7.5 10.8307 7.5 10.95V15.3C7.5 15.4193 7.45259 15.5338 7.3682 15.6182C7.28381 15.7026 7.16935 15.75 7.05 15.75H2.7C2.58065 15.75 2.46619 15.7026 2.3818 15.6182C2.29741 15.5338 2.25 15.4193 2.25 15.3ZM10.5 7.05V2.7C10.5 2.58065 10.5474 2.46619 10.6318 2.3818C10.7162 2.29741 10.8307 2.25 10.95 2.25H15.3C15.4193 2.25 15.5338 2.29741 15.6182 2.3818C15.7026 2.46619 15.75 2.58065 15.75 2.7V7.05C15.75 7.16935 15.7026 7.28381 15.6182 7.3682C15.5338 7.45259 15.4193 7.5 15.3 7.5H10.95C10.8307 7.5 10.7162 7.45259 10.6318 7.3682C10.5474 7.28381 10.5 7.16935 10.5 7.05ZM2.25 7.05V2.7C2.25 2.58065 2.29741 2.46619 2.3818 2.3818C2.46619 2.29741 2.58065 2.25 2.7 2.25H7.05C7.16935 2.25 7.28381 2.29741 7.3682 2.3818C7.45259 2.46619 7.5 2.58065 7.5 2.7V7.05C7.5 7.16935 7.45259 7.28381 7.3682 7.3682C7.28381 7.45259 7.16935 7.5 7.05 7.5H2.7C2.58065 7.5 2.46619 7.45259 2.3818 7.3682C2.29741 7.28381 2.25 7.16935 2.25 7.05Z" stroke="#003ECB" stroke-width="0.975"/>
</svg>
