<svg width="422" height="420" viewBox="0 0 422 420" fill="none" xmlns="http://www.w3.org/2000/svg">
<path opacity="0.07" d="M383.544 177.032C383.544 179.312 383.493 181.593 383.341 183.722C405.185 200.295 422 235.822 422 267.093C422 301.151 402.035 317.217 377.397 303.026C377.346 302.976 377.295 302.976 377.245 302.925L222.455 213.877C222.405 213.827 222.354 213.827 222.252 213.776C194.566 197.811 172.112 153.87 172.112 115.605C172.112 79.7732 191.823 61.5785 217.071 72.5764C220.169 47.9958 236.68 37.4033 256.593 48.908C266.144 54.4324 274.932 64.1126 281.79 75.7694C291.747 61.021 308.715 57.2705 327.917 68.3192C358.652 85.9564 383.544 134.662 383.544 177.032Z" fill="url(#paint0_linear_292_620)"/>
<path opacity="0.4" d="M358.144 201.359C358.144 203.639 358.093 205.92 357.94 208.049C379.785 224.622 396.6 260.15 396.6 291.42C396.6 325.478 376.635 341.544 351.997 327.354C351.946 327.303 351.895 327.303 351.844 327.252L197.055 238.204C197.004 238.154 196.954 238.154 196.852 238.103C169.166 222.138 146.712 178.197 146.712 139.932C146.712 104.1 166.422 85.9056 191.67 96.9036C194.769 72.3229 211.279 61.7304 231.193 73.2352C240.744 78.7595 249.532 88.4397 256.39 100.097C266.347 85.3481 283.314 81.5977 302.517 92.6463C333.251 110.284 358.144 158.989 358.144 201.359Z" fill="url(#paint1_linear_292_620)"/>
<path opacity="0.2" d="M113.082 244.742L89.5107 231.16V223.203L113.082 236.785C115.013 237.9 117.807 240.13 120.194 243.577C122.785 247.276 124.614 251.939 124.614 257.007C124.614 262.582 123.191 265.775 120.448 266.688C117.908 267.549 114.911 266.079 113.031 265.015L103.328 259.44L103.278 259.389C102.465 258.883 101.144 258.426 100.077 258.731C99.2136 258.984 98.2483 259.846 98.2483 262.937C98.2483 266.029 99.2136 267.955 100.026 269.07C101.042 270.489 102.363 271.502 103.176 271.908L103.278 271.958L132.894 289.038V296.995L103.43 280.017C101.398 278.953 98.5024 276.723 95.9623 273.175C93.2191 269.323 91.2887 264.407 91.3395 258.933C91.3395 253.51 93.2191 250.723 95.9623 249.963C98.5024 249.253 101.398 250.267 103.43 251.534L113.031 257.058C114.403 257.869 115.47 258.224 116.13 257.97C116.638 257.818 117.654 257.058 117.654 253.004C117.654 250.419 116.791 248.696 116.029 247.53C115.114 246.212 113.844 245.199 113.082 244.742Z" fill="white"/>
<path d="M94.5903 229.183C94.5903 235.721 90.7295 238.812 86.005 236.126C81.2806 233.39 77.4197 225.889 77.4197 219.3C77.4197 212.762 81.2806 209.67 86.005 212.357C90.7295 215.093 94.5903 222.645 94.5903 229.183Z" fill="#F2994A"/>
<path d="M144.883 299.631C144.883 306.169 141.022 309.26 136.298 306.574C131.573 303.837 127.712 296.336 127.712 289.748C127.712 283.21 131.573 280.118 136.298 282.804C141.022 285.541 144.883 293.093 144.883 299.631Z" fill="#F2994A"/>
<path opacity="0.07" d="M185.473 131.266L337.824 218.996V299.428L185.422 211.698L185.473 131.266Z" fill="url(#paint2_linear_292_620)"/>
<path opacity="0.3" d="M165.102 141.402L317.453 229.132V309.564L165.102 221.834V141.402Z" fill="url(#paint3_linear_292_620)"/>
<path d="M178.767 189.297C178.767 195.784 182.628 203.234 187.352 205.971C192.077 208.708 195.937 205.667 195.937 199.18C195.937 192.692 192.077 185.242 187.352 182.505C182.628 179.768 178.767 182.809 178.767 189.297Z" fill="#F2994A"/>
<path opacity="0.15" d="M200.256 201.815C200.256 204.805 202.034 208.302 204.269 209.569C206.453 210.836 208.232 209.417 208.232 206.427C208.232 203.437 206.454 199.94 204.218 198.673C202.034 197.406 200.256 198.825 200.256 201.815Z" fill="white"/>
<path opacity="0.15" d="M212.499 208.86C212.499 211.85 214.277 215.347 216.512 216.614C218.696 217.881 220.474 216.462 220.474 213.472C220.474 210.481 218.696 206.984 216.461 205.717C214.277 204.45 212.499 205.869 212.499 208.86Z" fill="white"/>
<path opacity="0.15" d="M278.996 222.544V268.309L273.002 264.863V219.097L278.996 222.544Z" fill="white"/>
<path opacity="0.15" d="M292.103 230.146V275.912L286.109 272.465V226.7L292.103 230.146Z" fill="white"/>
<path opacity="0.15" d="M305.26 237.748V283.514L299.266 280.068V234.302L305.26 237.748Z" fill="white"/>
<path opacity="0.07" d="M185.422 241.195L337.773 328.925V409.357L185.422 321.627V241.195Z" fill="url(#paint4_linear_292_620)"/>
<path opacity="0.3" d="M165.102 251.838L317.453 339.568V420L165.102 332.27V251.838Z" fill="url(#paint5_linear_292_620)"/>
<path d="M178.767 299.732C178.767 306.219 182.628 313.67 187.352 316.406C192.077 319.143 195.937 316.102 195.937 309.615C195.937 303.128 192.077 295.677 187.352 292.941C182.628 290.204 178.767 293.245 178.767 299.732Z" fill="#F2994A"/>
<path opacity="0.15" d="M200.256 312.301C200.256 315.291 202.034 318.788 204.269 320.056C206.453 321.323 208.232 319.903 208.232 316.913C208.232 313.923 206.454 310.426 204.218 309.159C202.034 307.892 200.256 309.26 200.256 312.301Z" fill="white"/>
<path opacity="0.15" d="M212.448 319.346C212.448 322.336 214.226 325.833 216.461 327.1C218.646 328.367 220.424 326.948 220.424 323.958C220.424 320.968 218.646 317.471 216.41 316.204C214.226 314.886 212.448 316.305 212.448 319.346Z" fill="white"/>
<path opacity="0.15" d="M278.996 334.55V380.316L273.002 376.87V331.104L278.996 334.55Z" fill="white"/>
<path opacity="0.15" d="M292.103 342.153V387.918L286.109 384.472V338.706L292.103 342.153Z" fill="white"/>
<path opacity="0.15" d="M305.26 349.755V395.521L299.266 392.074V346.309L305.26 349.755Z" fill="white"/>
<path opacity="0.3" d="M29.82 22.2493L124.766 76.9349V252.446L29.82 197.71V22.2493Z" fill="url(#paint6_linear_292_620)"/>
<path d="M88.4437 85.8042C88.4437 94.5721 83.3637 98.728 77.1152 95.0789C70.8667 91.4299 65.7867 81.3949 65.7867 72.6269C65.7867 63.859 70.8667 59.7031 77.1152 63.3521C83.3637 67.0012 88.4437 77.0362 88.4437 85.8042Z" fill="#F2C94C"/>
<path d="M77.1152 102.124C67.0059 96.2446 58.6747 101.769 57.2014 114.439C56.9474 116.619 58.6238 119.558 60.6559 120.724L93.6254 139.932C95.6574 141.098 97.3339 140.186 97.0799 137.652C95.5558 123.207 87.1738 108.003 77.1152 102.124Z" fill="#F2C94C"/>
<path opacity="0.15" d="M48.8702 136.081L105.462 168.669V175.562L48.8702 142.973V136.081Z" fill="white"/>
<path opacity="0.15" d="M54.6106 153.059L99.4675 178.856V185.749L54.6106 159.952V153.059Z" fill="white"/>
<path d="M66.0407 182.049L0 143.987V163.601L66.0407 201.663V182.049Z" fill="#F2C94C"/>
<path opacity="0.2" d="M145.239 0L159.361 27.6723C161.292 31.4734 160.987 35.2745 158.65 36.1868C156.313 37.0991 152.859 34.717 150.929 30.9159L150.776 30.5611V61.2743C150.776 64.7713 148.338 66.1904 145.29 64.4672C142.242 62.6934 139.803 58.4868 139.803 54.9897V24.2766L139.651 24.4286C137.72 25.9998 134.215 24.3779 131.929 20.7795C129.592 17.1811 129.287 13.0252 131.218 11.4541L145.239 0Z" fill="url(#paint7_linear_292_620)"/>
<path opacity="0.2" d="M145.239 408.596L131.116 380.924C129.186 377.123 129.491 373.322 131.827 372.41C134.164 371.497 137.619 373.879 139.549 377.681L139.701 378.035V347.322C139.701 343.825 142.14 342.406 145.188 344.129C148.236 345.903 150.674 350.11 150.674 353.607V384.32L150.827 384.168C152.757 382.597 156.262 384.219 158.548 387.817C160.885 391.415 161.19 395.571 159.26 397.142L145.239 408.596Z" fill="url(#paint8_linear_292_620)"/>
<defs>
<linearGradient id="paint0_linear_292_620" x1="412.912" y1="80.2469" x2="256.07" y2="229.364" gradientUnits="userSpaceOnUse">
<stop stop-color="white"/>
<stop offset="1" stop-color="white" stop-opacity="0"/>
</linearGradient>
<linearGradient id="paint1_linear_292_620" x1="387.507" y1="104.574" x2="230.665" y2="253.691" gradientUnits="userSpaceOnUse">
<stop stop-color="white"/>
<stop offset="1" stop-color="white" stop-opacity="0"/>
</linearGradient>
<linearGradient id="paint2_linear_292_620" x1="258.508" y1="137.698" x2="264.158" y2="279.972" gradientUnits="userSpaceOnUse">
<stop stop-color="white"/>
<stop offset="1" stop-color="white" stop-opacity="0"/>
</linearGradient>
<linearGradient id="paint3_linear_292_620" x1="238.187" y1="147.834" x2="243.837" y2="290.108" gradientUnits="userSpaceOnUse">
<stop stop-color="white"/>
<stop offset="1" stop-color="white" stop-opacity="0"/>
</linearGradient>
<linearGradient id="paint4_linear_292_620" x1="258.497" y1="247.643" x2="264.147" y2="389.917" gradientUnits="userSpaceOnUse">
<stop stop-color="white"/>
<stop offset="1" stop-color="white" stop-opacity="0"/>
</linearGradient>
<linearGradient id="paint5_linear_292_620" x1="238.176" y1="258.287" x2="243.826" y2="400.561" gradientUnits="userSpaceOnUse">
<stop stop-color="white"/>
<stop offset="1" stop-color="white" stop-opacity="0"/>
</linearGradient>
<linearGradient id="paint6_linear_292_620" x1="134.942" y1="37.6745" x2="50.9539" y2="183.524" gradientUnits="userSpaceOnUse">
<stop stop-color="white"/>
<stop offset="1" stop-color="white" stop-opacity="0"/>
</linearGradient>
<linearGradient id="paint7_linear_292_620" x1="155.289" y1="27.9134" x2="129.551" y2="42.2946" gradientUnits="userSpaceOnUse">
<stop stop-color="white"/>
<stop offset="1" stop-color="white" stop-opacity="0"/>
</linearGradient>
<linearGradient id="paint8_linear_292_620" x1="135.162" y1="380.702" x2="160.9" y2="366.321" gradientUnits="userSpaceOnUse">
<stop stop-color="white"/>
<stop offset="1" stop-color="white" stop-opacity="0"/>
</linearGradient>
</defs>
</svg>
