<svg width="18" height="18" viewBox="0 0 18 18" fill="none" xmlns="http://www.w3.org/2000/svg">
<path d="M13.6005 8.25C14.0363 12.2812 15.75 13.5 15.75 13.5H2.25C2.25 13.5 4.5 11.9002 4.5 6.3C4.5 5.02725 4.974 3.80625 5.81775 2.90625C6.66225 2.00625 7.8075 1.5 9 1.5C9.25275 1.5 9.504 1.5225 9.75 1.5675M10.2975 15.75C10.1658 15.9775 9.97659 16.1664 9.74886 16.2977C9.52112 16.429 9.26287 16.4981 9 16.4981C8.73713 16.4981 8.47888 16.429 8.25114 16.2977C8.02341 16.1664 7.83421 15.9775 7.7025 15.75M14.25 6C14.8467 6 15.419 5.76295 15.841 5.34099C16.2629 4.91903 16.5 4.34674 16.5 3.75C16.5 3.15326 16.2629 2.58097 15.841 2.15901C15.419 1.73705 14.8467 1.5 14.25 1.5C13.6533 1.5 13.081 1.73705 12.659 2.15901C12.2371 2.58097 12 3.15326 12 3.75C12 4.34674 12.2371 4.91903 12.659 5.34099C13.081 5.76295 13.6533 6 14.25 6Z" stroke="black" stroke-width="0.975" stroke-linecap="round" stroke-linejoin="round"/>
</svg>
