<svg width="128" height="25" viewBox="0 0 128 25" fill="none" xmlns="http://www.w3.org/2000/svg">
<path d="M8.51746 18.7299L14.8799 0.616292H16.958L10.2107 19.373H6.72161L0 0.616292H2.12937L8.51746 18.7299Z" fill="#444444"/>
<path d="M22.2543 5.54662C24.2554 5.54662 25.8973 6.28796 27.1801 7.77063C28.4799 9.23544 29.0529 11.0486 28.899 13.2101H17.4825C17.6193 14.5677 18.141 15.6842 19.0474 16.5595C19.971 17.4169 21.0913 17.8457 22.4083 17.8457C23.4173 17.8457 24.3153 17.5866 25.102 17.0686C25.8888 16.5506 26.4874 15.8449 26.8979 14.9518L28.5398 15.6752C27.9925 16.8721 27.1801 17.8367 26.1026 18.5691C25.0251 19.2837 23.7851 19.6409 22.3826 19.6409C20.4499 19.6409 18.8251 18.9711 17.5081 17.6313C16.2083 16.2737 15.5584 14.5945 15.5584 12.5938C15.5584 10.5931 16.1997 8.92283 17.4825 7.58307C18.7652 6.22544 20.3558 5.54662 22.2543 5.54662ZM22.2543 7.34191C21.0742 7.34191 20.048 7.73491 19.1757 8.5209C18.3034 9.3069 17.7561 10.3162 17.5338 11.5488H26.9492C26.7611 10.334 26.2308 9.33369 25.3586 8.5477C24.5034 7.74384 23.4687 7.34191 22.2543 7.34191Z" fill="#444444"/>
<path d="M30.1907 15.8628L32.1405 15.4609C32.4142 17.1222 33.5344 17.9528 35.5013 17.9528C36.4933 17.9528 37.2972 17.7474 37.9129 17.3365C38.5457 16.9078 38.8621 16.363 38.8621 15.702C38.8621 15.0232 38.5714 14.5052 37.9899 14.1479C37.4254 13.7906 36.7413 13.5406 35.9375 13.3976C35.1336 13.2369 34.3212 13.0672 33.5002 12.8885C32.6964 12.692 32.0037 12.3169 31.4222 11.7631C30.8578 11.2094 30.5756 10.4502 30.5756 9.48553C30.5756 8.34226 31.0374 7.40443 31.9609 6.67203C32.8845 5.92176 34.0646 5.54662 35.5013 5.54662C36.9038 5.54662 38.0497 5.88603 38.9391 6.56485C39.8285 7.24366 40.3758 8.16363 40.581 9.32476L38.6569 9.72669C38.3661 8.08324 37.3143 7.26152 35.5013 7.26152C34.6291 7.26152 33.9107 7.45802 33.3463 7.85102C32.7819 8.24402 32.4997 8.76206 32.4997 9.40514C32.4997 10.0304 32.7819 10.5127 33.3463 10.8521C33.9278 11.1736 34.6205 11.4059 35.4244 11.5488C36.2453 11.6917 37.0577 11.8703 37.8616 12.0847C38.6825 12.2812 39.3752 12.6742 39.9396 13.2637C40.5212 13.8532 40.8119 14.6481 40.8119 15.6484C40.8119 16.8096 40.3074 17.7653 39.2983 18.5155C38.2892 19.2658 37.0235 19.6409 35.5013 19.6409C34.0304 19.6409 32.8247 19.3015 31.884 18.6227C30.9604 17.9439 30.396 17.0239 30.1907 15.8628Z" fill="#444444"/>
<path d="M44.0649 7.63666H41.1402V5.81458H44.0649V0.964631L45.989 0.348339V5.81458H49.9399V7.63666H45.989V14.7642C45.989 15.7646 46.1943 16.4791 46.6047 16.9078C47.0152 17.3365 47.6908 17.5509 48.6315 17.5509H49.9399V19.373H48.6315C47.0751 19.373 45.9206 18.9889 45.1681 18.2208C44.4326 17.4527 44.0649 16.2737 44.0649 14.6838V7.63666Z" fill="#444444"/>
<path d="M63.3096 19.373H51.8161V0.616292H63.3096V3.26903H54.6638V8.68167H63.053V11.3076H54.6638V16.7203H63.3096V19.373Z" fill="#444444"/>
<path d="M72.5905 5.41265C74.0784 5.41265 75.2928 5.95749 76.2335 7.04716C77.1742 8.13684 77.6445 9.52126 77.6445 11.2004V19.373H74.9507V11.6292C74.9507 10.5752 74.6258 9.70883 73.9758 9.03001C73.3259 8.33333 72.522 7.985 71.5643 7.985C70.4867 7.985 69.6059 8.33333 68.9218 9.03001C68.2377 9.70883 67.8956 10.5752 67.8956 11.6292V19.373H65.2018V5.6806H67.8956V9.21758C68.2548 8.03859 68.8448 7.10968 69.6658 6.43087C70.5039 5.75206 71.4787 5.41265 72.5905 5.41265Z" fill="#444444"/>
<path d="M90.4113 9.56592V5.6806H93.105V17.8993C93.105 19.9178 92.438 21.6059 91.104 22.9636C89.7699 24.3212 88.1194 25 86.1525 25C84.7672 25 83.5272 24.6517 82.4326 23.955C81.3551 23.2583 80.5426 22.3205 79.9953 21.1415L82.4326 19.8821C82.7917 20.6681 83.2877 21.2844 83.9206 21.731C84.5705 22.1954 85.3145 22.4277 86.1525 22.4277C87.3498 22.4277 88.3589 21.99 89.1798 21.1147C90.0008 20.2572 90.4113 19.1854 90.4113 17.8993V15.2197C89.9837 16.4702 89.3081 17.4705 88.3845 18.2208C87.4781 18.9711 86.4176 19.3462 85.2033 19.3462C83.5101 19.3462 82.099 18.6852 80.9702 17.3633C79.8414 16.0236 79.277 14.3623 79.277 12.3794C79.277 10.3966 79.8414 8.74419 80.9702 7.42229C82.099 6.08253 83.5101 5.41265 85.2033 5.41265C86.4176 5.41265 87.4866 5.78778 88.4102 6.53805C89.3338 7.28832 90.0008 8.29761 90.4113 9.56592ZM86.1782 16.7738C87.3925 16.7738 88.4016 16.3541 89.2055 15.5145C90.0093 14.6749 90.4113 13.6299 90.4113 12.3794C90.4113 11.129 90.0093 10.0929 89.2055 9.27117C88.4016 8.43158 87.3925 8.01179 86.1782 8.01179C85.0152 8.01179 84.0317 8.43158 83.2279 9.27117C82.4411 10.1108 82.0477 11.1468 82.0477 12.3794C82.0477 13.6299 82.4411 14.6749 83.2279 15.5145C84.0317 16.3541 85.0152 16.7738 86.1782 16.7738Z" fill="#444444"/>
<path d="M95.5094 2.97428C95.1844 2.63487 95.022 2.22401 95.022 1.74169C95.022 1.25938 95.1844 0.848517 95.5094 0.50911C95.8515 0.169703 96.2534 0 96.7152 0C97.177 0 97.5704 0.169703 97.8953 0.50911C98.2203 0.848517 98.3828 1.25938 98.3828 1.74169C98.3828 2.22401 98.2203 2.63487 97.8953 2.97428C97.5704 3.31368 97.177 3.48339 96.7152 3.48339C96.2534 3.48339 95.8515 3.31368 95.5094 2.97428ZM98.0492 19.373H95.3555V5.6806H98.0492V19.373Z" fill="#444444"/>
<path d="M107.687 5.41265C109.175 5.41265 110.389 5.95749 111.33 7.04716C112.27 8.13684 112.741 9.52126 112.741 11.2004V19.373H110.047V11.6292C110.047 10.5752 109.722 9.70883 109.072 9.03001C108.422 8.33333 107.618 7.985 106.661 7.985C105.583 7.985 104.702 8.33333 104.018 9.03001C103.334 9.70883 102.992 10.5752 102.992 11.6292V19.373H100.298V5.6806H102.992V9.21758C103.351 8.03859 103.941 7.10968 104.762 6.43087C105.6 5.75206 106.575 5.41265 107.687 5.41265Z" fill="#444444"/>
<path d="M121.197 5.41265C123.301 5.41265 125.012 6.19864 126.328 7.77063C127.645 9.34262 128.184 11.2451 127.945 13.478H117.093C117.281 14.5856 117.768 15.4877 118.555 16.1844C119.342 16.8632 120.291 17.2026 121.403 17.2026C122.258 17.2026 123.019 16.9882 123.686 16.5595C124.37 16.1129 124.9 15.5145 125.277 14.7642L127.534 15.8092C126.953 16.9703 126.123 17.8993 125.046 18.5959C123.968 19.2926 122.728 19.6409 121.326 19.6409C119.359 19.6409 117.708 18.9621 116.374 17.6045C115.04 16.2469 114.373 14.5588 114.373 12.5402C114.373 10.5216 115.023 8.83351 116.323 7.47588C117.64 6.10039 119.265 5.41265 121.197 5.41265ZM121.197 7.85102C120.205 7.85102 119.342 8.17256 118.606 8.81565C117.888 9.44087 117.409 10.2626 117.17 11.2808H125.225C125.003 10.2626 124.524 9.44087 123.789 8.81565C123.07 8.17256 122.207 7.85102 121.197 7.85102Z" fill="#444444"/>
</svg>
