<svg width="87" height="445" viewBox="0 0 87 445" fill="none" xmlns="http://www.w3.org/2000/svg">
<path d="M65.1801 415.389L2.14469 393.269L2.14469 386.045L67.418 409.502V421.632L2.14469 445L2.14469 437.597L65.1801 415.389Z" fill="white" fill-opacity="0.17"/>
<path d="M19.3022 367.631C19.3022 360.675 21.8821 354.966 27.0418 350.507C32.1393 345.988 38.4491 343.996 45.9711 344.531V384.221C50.6956 383.745 54.5809 381.932 57.627 378.78C60.6109 375.569 62.1029 371.675 62.1029 367.096C62.1029 363.588 61.2015 360.466 59.3987 357.731C57.5959 354.996 55.1404 352.915 52.0322 351.488L54.5498 345.78C58.7149 347.682 62.0718 350.507 64.6206 354.253C67.1072 357.999 68.3505 362.31 68.3505 367.186C68.3505 373.905 66.0193 379.553 61.3569 384.132C56.6324 388.651 50.7889 390.91 43.8264 390.91C36.8639 390.91 31.0515 388.681 26.3891 384.221C21.6645 379.761 19.3022 374.232 19.3022 367.631ZM25.5498 367.631C25.5498 371.734 26.9175 375.302 29.6527 378.334C32.388 381.367 35.9003 383.27 40.1897 384.043V351.309C35.9625 351.964 32.4812 353.807 29.746 356.839C26.9486 359.812 25.5498 363.41 25.5498 367.631Z" fill="white" fill-opacity="0.17"/>
<path d="M55.2026 340.04L53.8039 333.261C59.5852 332.31 62.4759 328.415 62.4759 321.577C62.4759 318.129 61.761 315.334 60.3312 313.193C58.8392 310.993 56.9432 309.893 54.6431 309.893C52.2808 309.893 50.478 310.904 49.2347 312.926C47.9914 314.888 47.1211 317.267 46.6238 320.061C46.0643 322.856 45.4737 325.68 44.8521 328.534C44.1683 331.329 42.8628 333.737 40.9357 335.759C39.0086 337.721 36.3666 338.702 33.0096 338.702C29.0311 338.702 25.7674 337.097 23.2186 333.886C20.6077 330.675 19.3022 326.572 19.3022 321.577C19.3022 316.702 20.4834 312.718 22.8457 309.626C25.2079 306.534 28.4094 304.631 32.4502 303.918L33.8489 310.607C28.1297 311.618 25.2701 315.275 25.2701 321.577C25.2701 324.61 25.9539 327.107 27.3215 329.069C28.6892 331.032 30.492 332.013 32.7299 332.013C34.9057 332.013 36.5841 331.032 37.7653 329.069C38.8842 327.048 39.6924 324.64 40.1897 321.845C40.687 318.991 41.3087 316.167 42.0547 313.372C42.7385 310.518 44.1061 308.11 46.1576 306.147C48.209 304.126 50.9753 303.115 54.4566 303.115C58.4973 303.115 61.8232 304.869 64.4341 308.377C67.045 311.885 68.3505 316.285 68.3505 321.577C68.3505 326.691 67.1693 330.883 64.8071 334.153C62.4448 337.364 59.2433 339.326 55.2026 340.04Z" fill="white" fill-opacity="0.17"/>
<path d="M26.5756 291.806L26.5756 301.973H20.2347L20.2347 291.806H3.35691L1.21222 285.116H20.2347V271.381H26.5756V285.116H51.3794C54.8607 285.116 57.3473 284.403 58.8392 282.976C60.3312 281.549 61.0772 279.2 61.0772 275.93V271.381H67.418V275.93C67.418 281.341 66.0815 285.354 63.4084 287.97C60.7353 290.527 56.6324 291.806 51.0997 291.806H26.5756Z" fill="white" fill-opacity="0.17"/>
<path d="M67.418 224.9V264.858H2.14469L2.14469 224.9H11.3762L11.3762 254.958H30.2122L30.2122 225.792H39.3505V254.958H58.1865V224.9H67.418Z" fill="white" fill-opacity="0.17"/>
<path d="M18.836 192.635C18.836 187.462 20.732 183.24 24.5241 179.97C28.3162 176.699 33.134 175.064 38.9775 175.064H67.418V184.429H40.4695C36.8017 184.429 33.7867 185.559 31.4244 187.818C29 190.078 27.7878 192.873 27.7878 196.202C27.7878 199.948 29 203.011 31.4244 205.389C33.7867 207.768 36.8017 208.957 40.4695 208.957H67.418V218.322H19.7685V208.957H32.0772C27.9743 207.708 24.7417 205.657 22.3794 202.803C20.0172 199.889 18.836 196.5 18.836 192.635Z" fill="white" fill-opacity="0.17"/>
<path d="M33.2894 130.68H19.7685L19.7685 121.315H62.2894C69.314 121.315 75.1886 123.633 79.9132 128.271C84.6377 132.909 87 138.647 87 145.485C87 150.302 85.7878 154.613 83.3633 158.418C80.9389 162.164 77.6752 164.988 73.5723 166.891L69.1897 158.418C71.925 157.169 74.0697 155.445 75.6238 153.245C77.2401 150.985 78.0482 148.399 78.0482 145.485C78.0482 141.323 76.5252 137.815 73.4791 134.961C70.4952 132.107 66.7653 130.68 62.2894 130.68H52.9646C57.3162 132.166 60.7974 134.515 63.4084 137.726C66.0193 140.877 67.3248 144.564 67.3248 148.785C67.3248 154.672 65.0247 159.578 60.4244 163.502C55.7621 167.426 49.9807 169.389 43.0804 169.389C36.1801 169.389 30.4298 167.426 25.8296 163.502C21.1672 159.578 18.836 154.672 18.836 148.785C18.836 144.564 20.1415 140.847 22.7524 137.637C25.3633 134.426 28.8757 132.107 33.2894 130.68ZM58.373 145.396C58.373 141.174 56.9121 137.666 53.9904 134.872C51.0686 132.077 47.4319 130.68 43.0804 130.68C38.7288 130.68 35.1233 132.077 32.2637 134.872C29.3419 137.666 27.881 141.174 27.881 145.396C27.881 149.44 29.3419 152.858 32.2637 155.653C35.1854 158.388 38.791 159.756 43.0804 159.756C47.4319 159.756 51.0686 158.388 53.9904 155.653C56.9121 152.858 58.373 149.44 58.373 145.396Z" fill="white" fill-opacity="0.17"/>
<path d="M10.3505 112.956C9.16935 114.085 7.73955 114.65 6.06109 114.65C4.38264 114.65 2.95284 114.085 1.7717 112.956C0.590568 111.766 0 110.369 0 108.764C0 107.158 0.590568 105.791 1.7717 104.661C2.95284 103.531 4.38264 102.966 6.06109 102.966C7.73955 102.966 9.16935 103.531 10.3505 104.661C11.5316 105.791 12.1222 107.158 12.1222 108.764C12.1222 110.369 11.5316 111.766 10.3505 112.956ZM67.418 104.126V113.491H19.7685V104.126H67.418Z" fill="white" fill-opacity="0.17"/>
<path d="M18.836 70.6205C18.836 65.4474 20.732 61.2256 24.5241 57.9553C28.3162 54.685 33.134 53.0498 38.9775 53.0498H67.418V62.4149H40.4695C36.8017 62.4149 33.7867 63.5446 31.4244 65.8041C29 68.0636 27.7878 70.8583 27.7878 74.1881C27.7878 77.9341 29 80.9964 31.4244 83.3748C33.7867 85.7533 36.8017 86.9425 40.4695 86.9425H67.418V96.3075H19.7685V86.9425H32.0772C27.9743 85.6938 24.7417 83.6424 22.3794 80.7883C20.0172 77.8747 18.836 74.4854 18.836 70.6205Z" fill="white" fill-opacity="0.17"/>
<path d="M18.836 23.6494C18.836 16.3357 21.5713 10.3897 27.0418 5.81119C32.5123 1.2327 39.1329 -0.640289 46.9035 0.192139V37.92C50.7578 37.266 53.8971 35.5713 56.3215 32.8361C58.6838 30.1009 59.865 26.8008 59.865 22.9359C59.865 19.9629 59.119 17.3169 57.627 14.9979C56.0729 12.6194 53.9904 10.7762 51.3794 9.46802L55.0161 1.61917C59.0568 3.64084 62.2894 6.52469 64.7138 10.2707C67.1383 14.0168 68.3505 18.3277 68.3505 23.2035C68.3505 30.0415 65.9882 35.7794 61.2637 40.4174C56.5391 45.0553 50.6645 47.3743 43.6399 47.3743C36.6152 47.3743 30.7406 45.1148 26.0161 40.5958C21.2294 36.0173 18.836 30.3685 18.836 23.6494ZM27.3215 23.6494C27.3215 27.0981 28.4405 30.101 30.6785 32.6578C32.8542 35.1551 35.7138 36.82 39.2572 37.6524V9.64642C35.7138 10.4194 32.8542 12.0843 30.6785 14.6411C28.4405 17.1385 27.3215 20.1412 27.3215 23.6494Z" fill="white" fill-opacity="0.17"/>
</svg>
